<?xml version="1.0" encoding="utf-8"?>
<!-- Generator: Adobe Illustrator 21.1.0, SVG Export Plug-In . SVG Version: 6.00 Build 0)  -->
<!DOCTYPE svg PUBLIC "-//W3C//DTD SVG 1.1//EN" "http://www.w3.org/Graphics/SVG/1.1/DTD/svg11.dtd">
<svg version="1.1" id="Camada_1" xmlns="http://www.w3.org/2000/svg" xmlns:xlink="http://www.w3.org/1999/xlink" x="0px" y="0px"
	 viewBox="0 0 331.5 106.9" style="enable-background:new 0 0 331.5 106.9;" xml:space="preserve">
<style type="text/css">
	.st0{fill:#9E1C33;}
	.st1{fill:#231F20;}
</style>
<g>
	<g>
		<g>
			<path class="st0" d="M104.3,61.8c-1.3,1.3-2.8,2.5-4.4,3.5c-5.1,3-14.8,3.4-23.2,0.7l-9.7,23L56.4,66
				C25,75.3,17.9,47.1,14.7,18.9C6.5,28,1.6,40,1.6,53.3c0,28.5,23.1,51.6,51.6,51.6c2.5,0,5-0.2,7.4-0.6c1.9-3.5,4-7.1,6.2-11.3
				c1.5,2.9,2.9,5.8,4.4,8.6C88.3,95.4,101.2,80.2,104.3,61.8"/>
			<path class="st0" d="M53.8,47.3C64,55.8,64.6,42.7,65,36.4c0.1-2.7,0.2-4.5-0.4-6.7c-0.3-1.1-0.9-1.7-2.9-3.1
				c3.6-4.9,9-3.9,8.5,0.6c-1,9.3-3.1,28.4,6.2,21.7C78.9,47,95,31.4,98.1,27.7c-9-15.5-25.7-25.9-44.8-25.9
				c-11.5,0-22,3.8-30.6,10.1c5.5,6.2,11.3,13.2,16,18.9C41.4,33.9,49.9,44,53.8,47.3"/>
		</g>
	</g>
	<path class="st1" d="M128.3,48.1c-2,0-4.3-0.6-5.8-2.1c-1.4-1.5-2-4-2-6V27.2h2.5v12.5c0,3.6,1.2,6,5.2,6c3.8,0,5.3-2.4,5.3-6V27.2
		h2.5V40c0,2-0.7,4.4-2.1,6C132.6,47.5,130.3,48.1,128.3,48.1L128.3,48.1z M214.6,84.8c-2.8,0-5.2-0.9-7-3.2
		c-1.5-2.1-2.1-4.8-2.1-7.4c0-2.5,0.6-5.2,2.1-7.4c1.7-2.3,4.1-3.2,7-3.2c2.8,0,5.2,0.9,7,3.2c1.5,2.1,2.1,4.8,2.1,7.4
		c0,2.5-0.6,5.3-2.1,7.4C219.9,83.9,217.4,84.8,214.6,84.8L214.6,84.8z M176.7,60.1h-3.1l4.6-5.3h3.1L176.7,60.1L176.7,60.1z
		 M172.5,66.1v6.2h8.6v2.5h-8.6v7.4h11.2v2.4H170v-21h13.4v2.4L172.5,66.1L172.5,66.1z M143.4,66.1v6.2h8.6v2.5h-8.6v7.4h11.2v2.4
		H141v-21h13.4v2.4L143.4,66.1L143.4,66.1z M126.2,84.6h-5.9v-21h5.9c2,0,4.8,0.1,6.6,1c3.6,1.8,4.8,5.6,4.8,9.5
		c0,3.8-1,7.7-4.8,9.4C130.9,84.4,128.1,84.6,126.2,84.6L126.2,84.6z M318.7,29.6v6.2h8.6v2.5h-8.6v7.4h11.2v2.4h-13.7v-21h13.4v2.4
		H318.7L318.7,29.6z M192.1,29.6v6.2h8.6v2.5h-8.6v7.4h11.2v2.4h-13.6v-21H203v2.4H192.1L192.1,29.6z M301.4,48.1h-5.9V27h5.9
		c2,0,4.8,0.1,6.6,1c3.6,1.8,4.8,5.6,4.8,9.5c0,3.8-1,7.7-4.8,9.4C306.2,47.9,303.4,48.1,301.4,48.1L301.4,48.1z M261.4,48.1h-5.9
		V27h5.9c2,0,4.8,0.1,6.6,1c3.6,1.8,4.8,5.6,4.8,9.5c0,3.8-1,7.7-4.8,9.4C266.2,47.9,263.5,48.1,261.4,48.1L261.4,48.1z M258.4,78.5
		h-8.3l-2.4,6.3H245l8.2-21.1h2.2l8,21.1h-2.7L258.4,78.5L258.4,78.5z M287.6,42h-8.3l-2.4,6.3h-2.7l8.2-21.1h2.2l8,21.1h-2.7
		L287.6,42L287.6,42z M238.7,42.2c0-0.8-0.3-1.7-0.9-2.2c-0.8-0.8-2.8-1.2-3.9-1.5l-0.4-0.1c-1.4-0.4-3.4-1-4.5-2
		c-1.1-1-1.5-2.3-1.5-3.8c0-1.7,0.7-3.1,2-4.2c1.3-1,2.9-1.3,4.5-1.3c1.8,0,3.4,0.4,4.8,1.5c1.3,1.1,2,2.8,2.1,4.5v0.7h-2.7v-0.6
		c0-1.2-0.2-1.8-1.1-2.7c-0.8-0.7-2.2-1-3.1-1s-2.1,0.2-2.8,0.9c-0.7,0.7-1,1.2-1,2.2c0,0.7,0.2,1.4,0.8,1.9
		c0.8,0.7,2.8,1.2,3.8,1.5l0.2,0c1.5,0.4,3.5,1.1,4.8,2.1c1.2,1,1.5,2.5,1.5,4c0,1.9-0.7,3.4-2.2,4.5c-1.4,1.1-3.1,1.4-4.9,1.4
		c-1.9,0-3.6-0.4-5.1-1.7c-1.4-1.2-2.1-2.9-2.2-4.9V41h2.7v0.6c0,1.1,0.4,2.1,1.2,3c0.9,0.8,2.3,1.2,3.4,1.2c1,0,2.4-0.2,3.2-1
		C238.4,44.1,238.7,43.3,238.7,42.2L238.7,42.2z M239.8,74.3c1.3,0.7,2.3,1.9,2.3,3.5v7h-2.5v-5.1c0-0.3,0-0.7,0-1v-0.3
		c0-1.1-0.3-1.7-1.2-2.2c-0.9-0.6-2.1-0.7-3.1-0.7h-5.1v9.2h-2.5V63.5h7.7c1.5,0,3.5,0.2,4.9,1c1.7,1.1,2.1,2.9,2.1,4.8
		C242.3,71.4,241.6,73.2,239.8,74.3L239.8,74.3z M210.4,39v9.2h-2.5V27h7.7c1.5,0,3.5,0.2,4.9,1c1.7,1.1,2.1,2.9,2.1,4.8
		c0,2.1-0.7,3.8-2.4,4.9c1.3,0.7,2.3,1.9,2.3,3.5v7h-2.5v-5.1c0-0.3,0-0.7,0-1v-0.3c0-1.1-0.3-1.7-1.2-2.2s-2.1-0.7-3.1-0.7h-5.2V39
		z M177.9,43.1l5.9-15.9h2.7l-7.7,21H177l-7.7-21h2.7L177.9,43.1L177.9,43.1z M195.1,79.6l5.9-15.9h2.7l-7.7,21h-1.7l-7.7-21h2.7
		L195.1,79.6L195.1,79.6z M246.8,48.1V27h2.5v21H246.8L246.8,48.1z M163.4,48.1V27h2.5v21H163.4L163.4,48.1z M144.3,32v16.3h-2.5
		V27.2h2.3l11.4,16.3V27.2h2.7v21.1h-2.3L144.3,32L144.3,32z M214.6,66.2c-2.2,0-3.6,0.7-5,2.4c-1.2,1.8-1.4,3.5-1.4,5.6
		c0,2.1,0.3,4,1.5,5.6c1.3,1.8,2.7,2.3,4.9,2.3c2.2,0,3.6-0.6,5-2.4c1.2-1.7,1.4-3.5,1.4-5.6c0-1.9-0.2-4-1.4-5.6
		C218.3,66.9,216.8,66.2,214.6,66.2L214.6,66.2z M122.8,82.2h3.5c1.7,0,4.1-0.1,5.6-0.9c2.3-1.2,2.9-4.6,2.9-7c0-2-0.1-4.5-1.7-6.1
		c-1-1-1.9-1.5-3.3-1.9c-0.4-0.1-1-0.1-1.4-0.1c-0.7,0-1.4,0-2.1,0h-3.5L122.8,82.2L122.8,82.2z M298.1,45.7h3.5
		c1.7,0,4.1-0.1,5.6-0.9c2.3-1.2,2.9-4.6,2.9-7c0-2-0.1-4.5-1.7-6.1c-1-1-1.9-1.5-3.3-1.9c-0.4-0.1-1-0.1-1.4-0.1
		c-0.7,0-1.4,0-2.1,0h-3.5L298.1,45.7L298.1,45.7z M258.2,45.7h3.5c1.7,0,4.1-0.1,5.6-0.9c2.3-1.2,2.9-4.6,2.9-7
		c0-2-0.1-4.5-1.7-6.1c-1-1-1.9-1.5-3.3-1.9c-0.4-0.1-1-0.1-1.4-0.1c-0.7,0-1.4,0-2.1,0h-3.5V45.7L258.2,45.7z M251.1,75.9h6.4
		l-3.1-8.3L251.1,75.9L251.1,75.9z M280.2,39.4h6.4l-3.1-8.3L280.2,39.4L280.2,39.4z M230.1,72.9h5.3c1.2,0,2.7-0.3,3.5-1.2
		c0.7-0.7,0.9-1.4,0.9-2.3c0-2-0.7-2.9-2.7-3.2c-0.3,0-0.6-0.1-0.9-0.1c-0.4,0-0.9,0-1.3,0h-4.8v6.9H230.1z M210.4,36.4h5.3
		c1.2,0,2.7-0.3,3.5-1.2c0.7-0.7,0.9-1.4,0.9-2.3c0-2-0.7-2.9-2.7-3.2c-0.3,0-0.6-0.1-0.9-0.1c-0.4,0-0.9,0-1.3,0h-4.8v6.9H210.4z"
		/>
</g>
</svg>
