<?xml version="1.0" standalone="no"?>
<!DOCTYPE svg PUBLIC "-//W3C//DTD SVG 20010904//EN"
 "http://www.w3.org/TR/2001/REC-SVG-20010904/DTD/svg10.dtd">
<svg version="1.0" xmlns="http://www.w3.org/2000/svg"
 width="250" height="100" viewBox="0 0 250 110"
 preserveAspectRatio="xMidYMid meet">

<g transform="translate(0.000000,144.000000) scale(0.100000,-0.100000)"
fill="#000000" stroke="none">
<path d="M2440 1154 c0 -3 11 -20 25 -38 76 -100 71 -231 -13 -319 -18 -19
-23 -30 -15 -38 15 -15 78 62 97 119 30 86 17 160 -41 245 -22 31 -53 50 -53
31z"/>
<path d="M2410 1083 c0 -5 9 -26 20 -48 11 -22 20 -55 20 -75 0 -20 -9 -53
-20 -75 -11 -22 -20 -46 -20 -53 0 -24 31 8 51 53 25 54 24 102 -3 155 -21 40
-48 65 -48 43z"/>
<path d="M1130 681 l0 -331 45 0 45 0 0 203 c0 127 4 196 10 186 5 -8 36 -91
69 -185 33 -93 63 -177 66 -186 5 -13 18 -18 51 -18 l44 0 0 330 0 330 -45 0
-45 0 -2 -191 -3 -192 -65 189 -65 189 -53 3 -52 3 0 -330z"/>
<path d="M1550 680 l0 -330 135 0 135 0 0 45 0 45 -85 0 -85 0 0 105 0 105 60
0 60 0 0 45 0 45 -60 0 -60 0 0 90 0 90 85 0 85 0 0 45 0 45 -135 0 -135 0 0
-330z"/>
<path d="M1900 680 l0 -330 135 0 135 0 0 45 0 45 -85 0 -85 0 0 105 0 105 60
0 60 0 0 45 0 45 -60 0 -60 0 0 90 c0 65 3 90 13 90 8 0 12 16 13 45 l1 45
-64 0 -63 0 0 -330z"/>
<path d="M2060 965 c0 -37 3 -45 19 -45 15 0 19 8 19 45 1 38 -2 45 -18 45
-17 0 -20 -7 -20 -45z"/>
<path d="M2130 965 c0 -38 3 -45 20 -45 17 0 20 7 20 45 0 38 -3 45 -20 45
-17 0 -20 -7 -20 -45z"/>
<path d="M2248 965 l-3 -45 47 0 48 0 0 45 0 45 -44 0 -44 0 -4 -45z"/>
<path d="M2250 615 l0 -265 45 0 45 0 0 265 0 265 -45 0 -45 0 0 -265z"/>
<path d="M2412 388 c-2 -28 2 -38 13 -38 11 0 15 10 14 38 l-2 37 -7 -35 -7
-35 -5 35 -5 35 -1 -37z"/>
<path d="M2451 388 c-1 -30 3 -38 17 -38 13 0 14 2 3 9 -7 5 -11 13 -9 17 3 5
2 18 -3 29 -6 16 -8 12 -8 -17z"/>
</g>
</svg>
